<svg width="512" height="512" viewBox="0 0 512 512" fill="none" xmlns="http://www.w3.org/2000/svg">
<rect width="512" height="512" rx="16" fill="#020817"/>
<path d="M105.411 370C104.47 370 104 369.455 104 368.365L104.706 143.974C104.706 142.884 105.176 142.339 106.117 142.339H145.627C146.568 142.339 147.038 142.884 147.038 143.974V221.497L202.423 143.647C203.129 142.775 203.952 142.339 204.892 142.339H245.461C246.402 142.339 246.637 142.775 246.167 143.647L185.137 233.927L253.575 368.692C254.045 369.564 253.457 370 251.811 370H208.773C207.597 370 206.891 369.564 206.656 368.692L159.032 272.524L146.685 290.515V368.365C146.685 369.455 146.215 370 145.274 370H105.411Z" fill="#64FFDA"/>
<path d="M271.125 370C269.949 370 269.361 369.455 269.361 368.365L270.067 143.647C270.067 142.775 270.537 142.339 271.478 142.339L337.446 142.012C350.381 141.794 362.14 144.628 372.723 150.516C383.541 156.404 392.125 164.363 398.475 174.395C404.825 184.208 408 195.111 408 207.104V300.982C408 313.63 404.707 325.187 398.122 335.655C391.537 345.904 382.718 354.081 371.665 360.187C360.611 366.293 348.147 369.455 334.271 369.673L271.125 370ZM312.399 329.767H334.271C342.973 329.767 350.263 326.932 356.143 321.262C362.257 315.592 365.315 308.832 365.315 300.982V206.777C365.315 199.799 362.493 193.802 356.848 188.787C351.439 183.553 344.972 181.046 337.446 181.264L312.752 181.591L312.399 329.767Z" fill="#64FFDA"/>
</svg>
